<?xml version="1.0" encoding="UTF-8"?>
<svg version="1.1" viewBox="0 0 46 46" xmlns="http://www.w3.org/2000/svg" xmlns:xlink="http://www.w3.org/1999/xlink">
    <!--Generated by IJSVG (https://github.com/iconjar/IJSVG)-->
    <path d="M634.977,200.29c-0.200152,-1.18455 -1.2469,-6.95044 -3.82454,-14.028c6.34268,-1.01417 11.8361,0.724793 12.2418,0.857311c-0.87364,5.47381 -4.00847,10.1931 -8.41724,13.1707v0v0Zm-10.976,3.35352c-4.75498,0 -9.11507,-1.69028 -12.515,-4.50291c0.259658,0.210947 0.440877,0.343465 0.440877,0.343465c0,0 3.76504,-8.21071 15.4145,-12.2701c0.043276,-0.016227 0.089257,-0.027045 0.132533,-0.040567c2.76427,7.18032 3.90298,13.195 4.1951,14.9123c-2.35585,1.00065 -4.94973,1.55776 -7.66802,1.55776v0v0Zm-19.6447,-19.6451c0,-0.208243 0.010819,-0.413781 0.016228,-0.619319c0.348916,0.008113 10.0536,0.227173 20.1668,-2.79911c0.562592,1.10071 1.10084,2.22306 1.59311,3.34c-0.259658,0.070315 -0.516611,0.148744 -0.773564,0.235287c-10.6,3.42383 -15.9771,12.9597 -15.9771,12.9597c0,0 0.008114,0.008113 0.008114,0.010818c-3.12942,-3.48063 -5.03357,-8.0809 -5.03357,-13.1274v0v0Zm11.2627,-17.7601c0.262363,0.348874 3.89487,5.27368 7.29476,11.3154c-9.43153,2.50703 -17.6189,2.40696 -18.1355,2.39885c1.27395,-6.08501 5.36085,-11.1288 10.8407,-13.7143v0v0Zm3.67578,-1.30895c0,0.002704 -0.002705,0.005409 -0.002705,0.005409c0,0 -0.024343,0.005409 -0.059505,0.010817c0.021638,-0.005408 0.040572,-0.008113 0.06221,-0.016226v0v0Zm17.6784,4.33253c-0.048686,0.07302 -2.84542,4.33253 -10.2619,7.11c-3.35662,-6.16885 -7.04592,-11.0693 -7.34074,-11.4588c1.48492,-0.359692 3.03475,-0.554412 4.63056,-0.554412c4.97136,0 9.51267,1.85525 12.9721,4.90317v0v0Zm6.66455,14.5418c-0.284001,-0.062202 -6.93232,-1.49286 -13.6807,-0.643659c-0.140648,-0.335352 -0.278591,-0.673408 -0.424649,-1.01146c-0.40842,-0.962785 -0.849297,-1.91475 -1.3064,-2.85049c7.75728,-3.16691 10.9056,-7.7185 10.9435,-7.77259c2.75345,3.3454 4.4223,7.61844 4.46828,12.2782v0v0Zm2.89681,-4.43259c-0.302934,-1.47663 -0.757335,-2.93433 -1.34427,-4.32442c-0.573411,-1.36304 -1.29017,-2.67741 -2.12054,-3.90523c-0.819545,-1.217 -1.76621,-2.36369 -2.80485,-3.4022c-1.04134,-1.04121 -2.18545,-1.98507 -3.4053,-2.80722c-1.22797,-0.832971 -2.54248,-1.54424 -3.90569,-2.12299c-1.39025,-0.584161 -2.84542,-1.03851 -4.32222,-1.3387c-1.51467,-0.311011 -3.07262,-0.470574 -4.63056,-0.470574c-1.56065,0 -3.1186,0.159563 -4.63327,0.470574c-1.4768,0.300194 -2.93197,0.754542 -4.32222,1.3387c-1.3632,0.578753 -2.67772,1.29002 -3.90839,2.12299c-1.21715,0.822153 -2.36126,1.76601 -3.4026,2.80722c-1.03863,1.03851 -1.9826,2.1852 -2.80485,3.4022c-0.830364,1.22782 -1.54713,2.54218 -2.12054,3.90523c-0.589639,1.39009 -1.04134,2.84779 -1.34427,4.32442c-0.308343,1.51179 -0.46522,3.06955 -0.46522,4.62732c0,1.56317 0.156877,3.12094 0.46522,4.63543c0.302934,1.47663 0.754631,2.93162 1.34427,4.31901c0.573411,1.36304 1.29017,2.68282 2.12054,3.91064c0.822249,1.217 1.76621,2.35828 2.80485,3.4022c1.04134,1.03851 2.18545,1.97966 3.4026,2.80452c1.23067,0.830267 2.54519,1.54424 3.90839,2.12029c1.39025,0.58957 2.84542,1.03851 4.32222,1.3387c1.51467,0.313716 3.07262,0.470574 4.63327,0.470574c1.55795,0 3.11589,-0.156858 4.63056,-0.470574c1.4768,-0.300194 2.93197,-0.749133 4.32222,-1.3387c1.3632,-0.576048 2.67772,-1.29002 3.90569,-2.12029c1.21985,-0.824857 2.36397,-1.76601 3.4053,-2.80452c1.03863,-1.04392 1.9853,-2.1852 2.80485,-3.4022c0.830364,-1.22782 1.54713,-2.54759 2.12054,-3.91064c0.586935,-1.38738 1.04134,-2.84238 1.34427,-4.31901c0.308343,-1.51449 0.46522,-3.07226 0.46522,-4.63543c0,-1.55776 -0.156877,-3.11553 -0.46522,-4.62732v0v0Z" transform="matrix(1,0,0,1,-601,-161)" fill-rule="evenodd" fill="#FFF" stroke="none"></path>
</svg>