<?xml version="1.0" encoding="UTF-8"?>
<svg version="1.1" viewBox="0 0 48 48" xmlns="http://www.w3.org/2000/svg" xmlns:xlink="http://www.w3.org/1999/xlink">
    <!--Generated by IJSVG (https://github.com/iconjar/IJSVG)-->
    <path d="M524,160c-6.51806,0 -7.33536,0.027628 -9.89522,0.144427c-2.55452,0.116512 -4.29917,0.52226 -5.82574,1.11559c-1.57821,0.613241 -2.91663,1.43388 -4.25096,2.76811c-1.33423,1.33433 -2.15487,2.67275 -2.76811,4.25096c-0.59333,1.52658 -0.999078,3.27122 -1.11559,5.82574c-0.116799,2.55985 -0.144427,3.37716 -0.144427,9.89522c0,6.51796 0.027628,7.33527 0.144427,9.89512c0.116512,2.55452 0.52226,4.29917 1.11559,5.82574c0.613241,1.57821 1.43388,2.91663 2.76811,4.25096c1.33433,1.33423 2.67275,2.15487 4.25096,2.76821c1.52658,0.593234 3.27122,0.998982 5.82574,1.11549c2.55985,0.116799 3.37716,0.144427 9.89522,0.144427c6.51796,0 7.33527,-0.027628 9.89512,-0.144427c2.55452,-0.116512 4.29917,-0.52226 5.82574,-1.11549c1.57821,-0.613337 2.91663,-1.43398 4.25096,-2.76821c1.33423,-1.33433 2.15487,-2.67275 2.76821,-4.25096c0.593234,-1.52658 0.998982,-3.27122 1.11549,-5.82574c0.116799,-2.55985 0.144427,-3.37716 0.144427,-9.89512c0,-6.51806 -0.027628,-7.33536 -0.144427,-9.89522c-0.116512,-2.55452 -0.52226,-4.29917 -1.11549,-5.82574c-0.613337,-1.57821 -1.43398,-2.91663 -2.76821,-4.25096c-1.33433,-1.33423 -2.67275,-2.15487 -4.25096,-2.76811c-1.52658,-0.59333 -3.27122,-0.999078 -5.82574,-1.11559c-2.55985,-0.116799 -3.37716,-0.144427 -9.89512,-0.144427Zm0,4.32432c6.40821,0 7.16731,0.024484 9.69801,0.139949c2.33998,0.1067 3.61076,0.49768 4.45645,0.826355c1.12026,0.435376 1.91975,0.955445 2.75954,1.79533c0.839884,0.839788 1.35995,1.63928 1.79533,2.75954c0.328675,0.845695 0.719655,2.11648 0.826355,4.45645c0.115465,2.5307 0.139949,3.2898 0.139949,9.69811c0,6.40821 -0.024484,7.16731 -0.139949,9.69801c-0.1067,2.33998 -0.49768,3.61076 -0.826355,4.45645c-0.435376,1.12026 -0.955445,1.91975 -1.79533,2.75954c-0.839788,0.839884 -1.63928,1.35995 -2.75954,1.79533c-0.845695,0.328675 -2.11648,0.719655 -4.45645,0.826355c-2.53032,0.115465 -3.28932,0.139949 -9.69801,0.139949c-6.40878,0 -7.16769,-0.024484 -9.69811,-0.139949c-2.33998,-0.1067 -3.61076,-0.49768 -4.45645,-0.826355c-1.12026,-0.435376 -1.91975,-0.955445 -2.75954,-1.79533c-0.839789,-0.839788 -1.35995,-1.63928 -1.79533,-2.75954c-0.328675,-0.845695 -0.719655,-2.11648 -0.826355,-4.45645c-0.115465,-2.5307 -0.139949,-3.2898 -0.139949,-9.69801c0,-6.40831 0.024484,-7.1674 0.139949,-9.69811c0.1067,-2.33998 0.49768,-3.61076 0.826355,-4.45645c0.435376,-1.12026 0.955445,-1.91975 1.79533,-2.75954c0.839788,-0.839884 1.63928,-1.35995 2.75954,-1.79533c0.845695,-0.328675 2.11648,-0.719655 4.45645,-0.826355c2.5307,-0.115465 3.2898,-0.139949 9.69811,-0.139949Zm0,7.35137c-6.80662,0 -12.3244,5.51774 -12.3244,12.3244c0,6.80653 5.51774,12.3243 12.3244,12.3243c6.80653,0 12.3243,-5.51774 12.3243,-12.3243c0,-6.80662 -5.51774,-12.3244 -12.3243,-12.3244Zm0,20.3243c-4.41835,0 -8.00005,-3.5817 -8.00005,-7.99995c0,-4.41835 3.5817,-8.00005 8.00005,-8.00005c4.41825,0 7.99995,3.5817 7.99995,8.00005c0,4.41825 -3.5817,7.99995 -7.99995,7.99995Zm15.6912,-20.8112c0,1.5906 -1.28945,2.87996 -2.88005,2.87996c-1.5905,0 -2.87996,-1.28936 -2.87996,-2.87996c0,-1.5906 1.28945,-2.88005 2.87996,-2.88005c1.5906,0 2.88005,1.28946 2.88005,2.88005Z" transform="matrix(1,0,0,1,-500,-160)" fill-rule="evenodd" fill="#FFF" stroke="none"></path>
</svg>