<?xml version="1.0" encoding="UTF-8"?>
<svg version="1.1" viewBox="0 0 96 96" xmlns="http://www.w3.org/2000/svg" xmlns:xlink="http://www.w3.org/1999/xlink">
    <!--Generated by IJSVG (https://github.com/iconjar/IJSVG)-->
    <path d="M80,12h-64c-6.627,0 -12,5.373 -12,12v48c0,6.627 5.373,12 12,12h64c6.627,0 12,-5.373 12,-12v-48c0,-6.627 -5.373,-12 -12,-12Zm0,8c0.462,0 0.906,0.078 1.318,0.223l-33.318,26.655l-33.318,-26.655c0.412,-0.145 0.856,-0.223 1.318,-0.223h64Zm0,56h-64c-2.209,0 -4,-1.791 -4,-4v-43.678l33.501,26.801c0.73,0.585 1.614,0.877 2.499,0.877c0.885,0 1.769,-0.292 2.499,-0.877l33.501,-26.801v43.678c0,2.209 -1.791,4 -4,4Z" fill="#FFF"></path>
</svg>