<?xml version="1.0" encoding="UTF-8"?>
<svg version="1.1" viewBox="0 0 48 40" xmlns="http://www.w3.org/2000/svg" xmlns:xlink="http://www.w3.org/1999/xlink">
    <!--Generated by IJSVG (https://github.com/iconjar/IJSVG)-->
    <path d="M348,168.735c-1.76369,0.803179 -3.66262,1.34633 -5.65452,1.58902c2.03416,-1.2481 3.595,-3.22716 4.33034,-5.58469c-1.90456,1.15565 -4.00916,1.99639 -6.25744,2.44709c-1.79187,-1.96172 -4.35288,-3.18671 -7.18718,-3.18671c-5.43476,0 -9.84399,4.52149 -9.84399,10.0975c0,0.791622 0.084522,1.56013 0.253566,2.29975c-8.18454,-0.421813 -15.4393,-4.4377 -20.2993,-10.554c-0.848036,1.49657 -1.33263,3.23294 -1.33263,5.08198c0,3.50163 1.73834,6.59299 4.38105,8.40448c-1.61155,-0.049115 -3.13295,-0.508487 -4.46276,-1.25966v0.124233c0,4.89419 3.39496,8.97653 7.9028,9.90105c-0.825498,0.236909 -1.69607,0.355363 -2.59482,0.355363c-0.633915,0 -1.25374,-0.060671 -1.85385,-0.179126c1.25374,4.01011 4.88818,6.93102 9.1988,7.00903c-3.36961,2.71 -7.61824,4.32503 -12.2303,4.32503c-0.794506,0 -1.58056,-0.046226 -2.34971,-0.138678c4.35851,2.86024 9.53689,4.53304 15.0956,4.53304c18.1159,0 28.019,-15.3846 28.019,-28.7295c0,-0.439148 -0.008452,-0.878296 -0.025357,-1.30878c1.92428,-1.42434 3.595,-3.20116 4.91072,-5.22644" transform="matrix(1,0,0,1,-300,-164)" fill-rule="evenodd" fill="#FFF" stroke="none"></path>
</svg>